<svg width="662" height="348" viewBox="0 0 662 348" fill="none" xmlns="http://www.w3.org/2000/svg">
<ellipse cx="59.09" cy="142.447" rx="35.2781" ry="48.5556" transform="rotate(-43.9094 59.09 142.447)" fill="#593196"/>
<ellipse rx="35.2781" ry="48.5556" transform="matrix(0.752535 0.658553 0.658553 -0.752535 307.524 145.772)" fill="#593196"/>
<g filter="url(#filter0_d)">
<path d="M332.23 163.814C325.422 171.745 318.23 177.814 309.538 181.882C300.386 185.147 290.538 187.882 282 182.444C288.803 185.062 299.152 181.195 307.491 178.22C315.829 175.246 322.23 171.814 331.73 163.814L332.23 163.814Z" fill="white"/>
</g>
<ellipse cx="132.567" cy="73.9555" rx="41.9097" ry="58.6053" transform="rotate(-16.1633 132.567 73.9555)" fill="#593196"/>
<ellipse rx="41.9097" ry="58.6053" transform="matrix(0.960472 0.278376 0.278376 -0.960472 238.567 67.9554)" fill="#593196"/>
<path d="M280.9 279C279.124 279 278.236 278.112 278.236 276.336V245.952C278.236 244.2 279.124 243.324 280.9 243.324C282.652 243.324 283.528 244.2 283.528 245.952V249.696C284.896 247.608 286.696 246.024 288.928 244.944C291.184 243.864 293.8 243.324 296.776 243.324C298.552 243.324 299.44 244.2 299.44 245.952C299.44 247.728 298.552 248.616 296.776 248.616C292.576 248.616 289.36 249.456 287.128 251.136C284.896 252.792 283.696 255.06 283.528 257.94V276.336C283.528 278.112 282.652 279 280.9 279ZM318.637 279C313.957 279 310.489 277.884 308.233 275.652C306.001 273.42 304.885 269.976 304.885 265.32V257.04C304.885 252.312 306.001 248.844 308.233 246.636C310.489 244.404 313.957 243.3 318.637 243.324H324.541C329.221 243.324 332.677 244.44 334.909 246.672C337.141 248.904 338.257 252.36 338.257 257.04V265.248C338.257 269.928 337.141 273.396 334.909 275.652C332.677 277.884 329.221 279 324.541 279H318.637ZM310.177 265.32C310.177 268.512 310.777 270.708 311.977 271.908C313.177 273.108 315.397 273.708 318.637 273.708H324.541C327.781 273.708 329.989 273.108 331.165 271.908C332.365 270.708 332.965 268.488 332.965 265.248V257.04C332.965 253.8 332.365 251.592 331.165 250.416C329.989 249.216 327.781 248.616 324.541 248.616H318.637C316.477 248.616 314.785 248.868 313.561 249.372C312.337 249.876 311.461 250.74 310.933 251.964C310.429 253.188 310.177 254.88 310.177 257.04V265.32ZM363.496 279C358.816 279 355.348 277.884 353.092 275.652C350.86 273.42 349.744 269.976 349.744 265.32V257.04C349.744 252.312 350.86 248.844 353.092 246.636C355.348 244.404 358.816 243.3 363.496 243.324H369.4C374.08 243.324 377.536 244.44 379.768 246.672C382 248.904 383.116 252.36 383.116 257.04V265.248C383.116 269.928 382 273.396 379.768 275.652C377.536 277.884 374.08 279 369.4 279H363.496ZM355.036 265.32C355.036 268.512 355.636 270.708 356.836 271.908C358.036 273.108 360.256 273.708 363.496 273.708H369.4C372.64 273.708 374.848 273.108 376.024 271.908C377.224 270.708 377.824 268.488 377.824 265.248V257.04C377.824 253.8 377.224 251.592 376.024 250.416C374.848 249.216 372.64 248.616 369.4 248.616H363.496C361.336 248.616 359.644 248.868 358.42 249.372C357.196 249.876 356.32 250.74 355.792 251.964C355.288 253.188 355.036 254.88 355.036 257.04V265.32ZM435.428 243.288C439.748 243.288 442.844 244.332 444.716 246.42C446.588 248.508 447.524 251.952 447.524 256.752V276.372C447.524 278.124 446.648 279 444.896 279C443.12 279 442.232 278.124 442.232 276.372V256.752C442.232 253.872 441.704 251.796 440.648 250.524C439.592 249.228 437.852 248.58 435.428 248.58H432.476C429.596 248.58 427.532 249.228 426.284 250.524C425.06 251.796 424.448 253.872 424.448 256.752V276.372C424.448 278.124 423.572 279 421.82 279C420.044 279 419.156 278.124 419.156 276.372V256.752C419.156 253.872 418.628 251.796 417.572 250.524C416.516 249.228 414.776 248.58 412.352 248.58H409.4C406.52 248.58 404.456 249.228 403.208 250.524C401.984 251.796 401.372 253.872 401.372 256.752V276.372C401.372 278.124 400.496 279 398.744 279C396.968 279 396.08 278.124 396.08 276.372V245.952C396.08 244.2 396.968 243.324 398.744 243.324C400.496 243.324 401.372 244.2 401.372 245.952V248.004C402.572 246.324 403.916 245.124 405.404 244.404C406.916 243.66 408.752 243.288 410.912 243.288H412.352C415.184 243.288 417.416 243.72 419.048 244.584C420.704 245.424 421.976 246.792 422.864 248.688C424.064 246.744 425.396 245.364 426.86 244.548C428.324 243.708 430.196 243.288 432.476 243.288H435.428ZM473.426 278.964C469.274 278.964 466.082 278.1 463.85 276.372C461.642 274.62 460.322 271.908 459.89 268.236C459.818 267.348 460.01 266.676 460.466 266.22C460.946 265.74 461.618 265.5 462.482 265.5C463.346 265.5 463.982 265.716 464.39 266.148C464.822 266.58 465.098 267.228 465.218 268.092C465.506 270.204 466.262 271.668 467.486 272.484C468.734 273.276 470.714 273.672 473.426 273.672H483.794C487.01 273.672 489.206 273.084 490.382 271.908C491.582 270.708 492.182 268.536 492.182 265.392C492.182 262.2 491.57 260.004 490.346 258.804C489.146 257.58 486.962 256.968 483.794 256.968H474.578C470.138 256.968 466.85 255.9 464.714 253.764C462.602 251.628 461.546 248.352 461.546 243.936C461.546 239.52 462.59 236.256 464.678 234.144C466.79 232.032 470.066 230.976 474.506 230.976H483.578C487.466 230.976 490.454 231.804 492.542 233.46C494.654 235.092 495.926 237.624 496.358 241.056C496.454 241.944 496.262 242.628 495.782 243.108C495.326 243.564 494.654 243.792 493.766 243.792C492.926 243.792 492.29 243.576 491.858 243.144C491.426 242.688 491.162 242.04 491.066 241.2C490.778 239.352 490.058 238.068 488.906 237.348C487.778 236.628 486.002 236.268 483.578 236.268H474.506C471.53 236.268 469.502 236.82 468.422 237.924C467.366 239.004 466.838 241.008 466.838 243.936C466.838 246.864 467.378 248.892 468.458 250.02C469.562 251.124 471.602 251.676 474.578 251.676H483.794C488.45 251.676 491.894 252.792 494.126 255.024C496.358 257.256 497.474 260.712 497.474 265.392C497.474 270.048 496.358 273.48 494.126 275.688C491.894 277.872 488.45 278.964 483.794 278.964H473.426ZM522.754 279C518.074 279 514.606 277.884 512.35 275.652C510.118 273.42 509.002 269.976 509.002 265.32V257.04C509.002 252.312 510.118 248.844 512.35 246.636C514.606 244.404 518.074 243.3 522.754 243.324H528.658C533.338 243.324 536.794 244.44 539.026 246.672C541.258 248.904 542.374 252.36 542.374 257.04V265.248C542.374 269.928 541.258 273.396 539.026 275.652C536.794 277.884 533.338 279 528.658 279H522.754ZM514.294 265.32C514.294 268.512 514.894 270.708 516.094 271.908C517.294 273.108 519.514 273.708 522.754 273.708H528.658C531.898 273.708 534.106 273.108 535.282 271.908C536.482 270.708 537.082 268.488 537.082 265.248V257.04C537.082 253.8 536.482 251.592 535.282 250.416C534.106 249.216 531.898 248.616 528.658 248.616H522.754C520.594 248.616 518.902 248.868 517.678 249.372C516.454 249.876 515.578 250.74 515.05 251.964C514.546 253.188 514.294 254.88 514.294 257.04V265.32ZM594.686 243.288C599.006 243.288 602.102 244.332 603.974 246.42C605.846 248.508 606.782 251.952 606.782 256.752V276.372C606.782 278.124 605.906 279 604.154 279C602.378 279 601.49 278.124 601.49 276.372V256.752C601.49 253.872 600.962 251.796 599.906 250.524C598.85 249.228 597.11 248.58 594.686 248.58H591.734C588.854 248.58 586.79 249.228 585.542 250.524C584.318 251.796 583.706 253.872 583.706 256.752V276.372C583.706 278.124 582.83 279 581.078 279C579.302 279 578.414 278.124 578.414 276.372V256.752C578.414 253.872 577.886 251.796 576.83 250.524C575.774 249.228 574.034 248.58 571.61 248.58H568.658C565.778 248.58 563.714 249.228 562.466 250.524C561.242 251.796 560.63 253.872 560.63 256.752V276.372C560.63 278.124 559.754 279 558.002 279C556.226 279 555.338 278.124 555.338 276.372V245.952C555.338 244.2 556.226 243.324 558.002 243.324C559.754 243.324 560.63 244.2 560.63 245.952V248.004C561.83 246.324 563.174 245.124 564.662 244.404C566.174 243.66 568.01 243.288 570.17 243.288H571.61C574.442 243.288 576.674 243.72 578.306 244.584C579.962 245.424 581.234 246.792 582.122 248.688C583.322 246.744 584.654 245.364 586.118 244.548C587.582 243.708 589.454 243.288 591.734 243.288H594.686ZM624.404 263.304V265.32C624.404 268.512 625.004 270.708 626.204 271.908C627.404 273.108 629.624 273.708 632.864 273.708H638.768C641.408 273.708 643.34 273.432 644.564 272.88C645.812 272.304 646.616 271.308 646.976 269.892C647.168 269.1 647.468 268.488 647.876 268.056C648.308 267.624 648.944 267.408 649.784 267.408C650.672 267.408 651.344 267.648 651.8 268.128C652.256 268.584 652.412 269.256 652.268 270.144C651.812 273.144 650.456 275.376 648.2 276.84C645.968 278.28 642.824 279 638.768 279H632.864C628.184 279 624.716 277.884 622.46 275.652C620.228 273.42 619.112 269.976 619.112 265.32V257.04C619.112 252.288 620.228 248.808 622.46 246.6C624.716 244.368 628.184 243.276 632.864 243.324H638.768C643.448 243.324 646.904 244.44 649.136 246.672C651.368 248.88 652.484 252.336 652.484 257.04V260.64C652.484 262.416 651.608 263.304 649.856 263.304H624.404ZM632.864 248.616C629.624 248.568 627.404 249.144 626.204 250.344C625.004 251.544 624.404 253.776 624.404 257.04V258.012H647.192V257.04C647.192 253.8 646.592 251.592 645.392 250.416C644.216 249.216 642.008 248.616 638.768 248.616H632.864Z" fill="#593196"/>
<path d="M271.84 243.49C270.58 249.97 268.42 254.74 265.36 257.8C262.3 260.86 258.16 262.84 252.94 263.74C234.58 313.42 198.67 338.26 145.21 338.26C121.63 338.26 103.45 332.77 90.67 321.79C78.07 310.63 71.77 295.06 71.77 275.08C71.77 259.96 75.28 244.3 82.3 228.1C89.32 211.72 98.59 196.78 110.11 183.28C121.81 169.78 136.12 158.71 153.04 150.07C169.96 141.25 186.52 136.84 202.72 136.84C218.92 136.84 231.43 139.72 240.25 145.48C249.07 151.06 253.48 158.53 253.48 167.89C253.48 177.07 249.07 185.44 240.25 193C231.43 200.38 221.62 204.07 210.82 204.07C206.86 204.07 203.62 203.26 201.1 201.64C198.58 199.84 197.32 197.59 197.32 194.89C197.32 192.19 198.4 189.31 200.56 186.25C202.54 186.97 204.79 187.33 207.31 187.33C214.33 187.33 220.81 184.9 226.75 180.04C232.69 175.18 235.66 169.33 235.66 162.49C235.66 152.05 228.82 146.83 215.14 146.83C201.64 146.83 188.14 150.97 174.64 159.25C161.14 167.35 149.35 177.79 139.27 190.57C129.19 203.17 120.91 217.57 114.43 233.77C108.13 249.97 104.98 265.81 104.98 281.29C104.98 296.77 108.94 308.2 116.86 315.58C124.78 322.96 135.31 326.65 148.45 326.65C167.35 326.65 185.17 320.89 201.91 309.37C218.65 297.67 228.46 282.73 231.34 264.55C199.12 264.55 179.77 265 173.29 265.9C174.19 264.28 175.27 262.21 176.53 259.69C177.97 257.17 180.4 253.84 183.82 249.7C187.42 245.56 190.39 243.49 192.73 243.49H271.84Z" fill="#593196"/>
<g filter="url(#filter1_d)">
<path d="M271.657 91.0421C268.029 100.708 260.554 108.904 252.348 114.174C244.143 119.444 235.09 124.355 225 121C232.548 122.001 241.776 115.873 249.252 111.072C256.727 106.271 263.136 101.238 270.33 91.2737L271.657 91.0421Z" fill="white"/>
</g>
<g filter="url(#filter2_d)">
<path d="M96.8571 167.929C95.1391 173.133 90.6354 177.185 85.3845 179.51C80.1336 181.835 74.2663 183.886 67 181.146C72.3112 182.337 78.2002 179.607 82.9839 177.489C87.7677 175.371 91.7935 173.032 95.9572 167.951L96.8571 167.929Z" fill="white"/>
</g>
<g filter="url(#filter3_d)">
<path d="M170 106.5C167.476 113.579 162.562 119.577 156.085 123.148C149.608 126.719 142.42 129.982 134 127C140.228 128.1 147.504 123.932 153.405 120.679C159.306 117.426 163.582 113.615 169.013 106.477L170 106.5Z" fill="white"/>
</g>
<defs>
<filter id="filter0_d" x="278" y="147" width="58.2339" height="60.2605" filterUnits="userSpaceOnUse" color-interpolation-filters="sRGB">
<feFlood flood-opacity="0" result="BackgroundImageFix"/>
<feColorMatrix in="SourceAlpha" type="matrix" values="0 0 0 0 0 0 0 0 0 0 0 0 0 0 0 0 0 0 127 0" result="hardAlpha"/>
<feOffset dy="4"/>
<feGaussianBlur stdDeviation="2"/>
<feComposite in2="hardAlpha" operator="out"/>
<feColorMatrix type="matrix" values="0 0 0 0 0 0 0 0 0 0 0 0 0 0 0 0 0 0 0.25 0"/>
<feBlend mode="normal" in2="BackgroundImageFix" result="effect1_dropShadow"/>
<feBlend mode="normal" in="SourceGraphic" in2="effect1_dropShadow" result="shape"/>
</filter>
<filter id="filter1_d" x="221" y="78.371" width="54.8513" height="63.3975" filterUnits="userSpaceOnUse" color-interpolation-filters="sRGB">
<feFlood flood-opacity="0" result="BackgroundImageFix"/>
<feColorMatrix in="SourceAlpha" type="matrix" values="0 0 0 0 0 0 0 0 0 0 0 0 0 0 0 0 0 0 127 0" result="hardAlpha"/>
<feOffset dy="4"/>
<feGaussianBlur stdDeviation="2"/>
<feComposite in2="hardAlpha" operator="out"/>
<feColorMatrix type="matrix" values="0 0 0 0 0 0 0 0 0 0 0 0 0 0 0 0 0 0 0.25 0"/>
<feBlend mode="normal" in2="BackgroundImageFix" result="effect1_dropShadow"/>
<feBlend mode="normal" in="SourceGraphic" in2="effect1_dropShadow" result="shape"/>
</filter>
<filter id="filter2_d" x="63" y="158.629" width="38" height="39.8876" filterUnits="userSpaceOnUse" color-interpolation-filters="sRGB">
<feFlood flood-opacity="0" result="BackgroundImageFix"/>
<feColorMatrix in="SourceAlpha" type="matrix" values="0 0 0 0 0 0 0 0 0 0 0 0 0 0 0 0 0 0 127 0" result="hardAlpha"/>
<feOffset dy="4"/>
<feGaussianBlur stdDeviation="2"/>
<feComposite in2="hardAlpha" operator="out"/>
<feColorMatrix type="matrix" values="0 0 0 0 0 0 0 0 0 0 0 0 0 0 0 0 0 0 0.25 0"/>
<feBlend mode="normal" in2="BackgroundImageFix" result="effect1_dropShadow"/>
<feBlend mode="normal" in="SourceGraphic" in2="effect1_dropShadow" result="shape"/>
</filter>
<filter id="filter3_d" x="130" y="96.2001" width="44.2119" height="49.2061" filterUnits="userSpaceOnUse" color-interpolation-filters="sRGB">
<feFlood flood-opacity="0" result="BackgroundImageFix"/>
<feColorMatrix in="SourceAlpha" type="matrix" values="0 0 0 0 0 0 0 0 0 0 0 0 0 0 0 0 0 0 127 0" result="hardAlpha"/>
<feOffset dy="4"/>
<feGaussianBlur stdDeviation="2"/>
<feComposite in2="hardAlpha" operator="out"/>
<feColorMatrix type="matrix" values="0 0 0 0 0 0 0 0 0 0 0 0 0 0 0 0 0 0 0.25 0"/>
<feBlend mode="normal" in2="BackgroundImageFix" result="effect1_dropShadow"/>
<feBlend mode="normal" in="SourceGraphic" in2="effect1_dropShadow" result="shape"/>
</filter>
</defs>
</svg>
